<?xml version="1.0" standalone="no"?>
<!DOCTYPE svg PUBLIC "-//W3C//DTD SVG 1.1//EN" "http://www.w3.org/Graphics/SVG/1.1/DTD/svg11.dtd" >
<svg>
<metadata>
Created by FontForge 20090622 at Wed Jun 15 08:06:12 2016
 By deploy user
QCopyright by Canal+, 1999 - Etienne Robial, Marc Lescop, Stephane Mailliard
</metadata>
<defs>
<font id="CanalDemiRomain" horiz-adv-x="0" >
  <font-face 
    font-family="CanalDemiRomain"
    font-weight="500"
    font-stretch="normal"
    units-per-em="1000"
    panose-1="2 0 6 3 4 0 0 2 0 3"
    ascent="800"
    descent="-200"
    x-height="471"
    cap-height="750"
    bbox="-66 -261 5066 1024"
    underline-thickness="131"
    underline-position="13"
    unicode-range="U+000D-U+FB02"
  />
<missing-glyph horiz-adv-x="281" 
 />
    <glyph glyph-name=".notdef" horiz-adv-x="281" 
 />
    <glyph glyph-name=".null" 
 />
    <glyph glyph-name="nonmarkingreturn" horiz-adv-x="333" 
 />
    <glyph glyph-name="CR" unicode="&#xd;" 
 />
    <glyph glyph-name="space" unicode=" " horiz-adv-x="281" 
 />
    <glyph glyph-name="exclam" unicode="!" horiz-adv-x="328" 
d="M234 233h-140v517h140v-517zM253 74q0 -37 -26 -63t-63 -26t-62.5 26t-25.5 63q0 36 25.5 62t62.5 26t63 -25.5t26 -62.5z" />
    <glyph glyph-name="quotedbl" unicode="&#x22;" horiz-adv-x="456" 
d="M395 750l-12 -303h-86l-28 303h126zM187 750l-12 -303h-87l-27 303h126z" />
    <glyph glyph-name="numbersign" unicode="#" horiz-adv-x="652" 
d="M615 440h-117l-15 -115h105v-106h-118l-28 -230l-106 14l27 216h-118l-30 -230l-106 14l26 217h-106v105h121l14 115h-108v105h121l27 216l105 -15l-24 -201h118l27 216l105 -15l-26 -201h106v-105zM389 440h-117l-15 -115h119z" />
    <glyph glyph-name="dollar" unicode="$" horiz-adv-x="637" 
d="M573 235q0 -106 -73 -173q-29 -27 -93 -52v-54h-136v44q-73 15 -113 41q-42 26 -94 92l83 87q28 -36 46 -52.5t42 -28.5q36 -18 77 -18q50 0 82.5 28t32.5 73q0 34 -22.5 55.5t-82.5 47.5l-42 18q-69 30 -100 56q-63 54 -63 141q0 95 68 157q28 27 86 50v46h136v-47
q42 -11 64 -23q34 -18 77 -60l-74 -94q-34 35 -63 48t-56 13q-41 0 -68.5 -23t-27.5 -57q0 -29 18 -44q16 -16 53 -33l51 -22q100 -44 140 -83q52 -49 52 -133z" />
    <glyph glyph-name="percent" unicode="%" horiz-adv-x="840" 
d="M841 165q0 -89 -58 -146t-149 -57q-92 0 -149.5 56.5t-57.5 147.5q0 89 57.5 146t147.5 57q93 0 151 -56.5t58 -147.5zM695 726l-438 -760l-105 58l440 759zM418 581q0 -90 -58 -147t-150 -57t-150 57t-58 147t58 147.5t149 57.5q94 0 151.5 -56.5t57.5 -148.5zM733 166
q0 48 -28 80t-71 32t-72 -32t-29 -80q0 -49 28.5 -80.5t72.5 -31.5q43 0 71 31.5t28 80.5zM312 580q0 48 -29 80t-72 32q-44 0 -72.5 -31.5t-28.5 -80.5q0 -48 29 -80t72 -32t72 32t29 80z" />
    <glyph glyph-name="ampersand" unicode="&#x26;" horiz-adv-x="783" 
d="M775 0h-181l-74 85q-79 -63 -141 -85q-49 -17 -99 -17q-102 0 -168.5 61t-66.5 154q0 75 51 136q13 17 25 26t41 27q39 23 41 25q9 4 17 9l2 1l2 2q-50 55 -65 94q-12 29 -12 62q0 82 57.5 134.5t146.5 52.5q88 0 146.5 -51.5t58.5 -128.5q0 -57 -39 -107
q-28 -34 -98 -77l123 -142l84 82l15 14l86 -86l-18 -18l-21 -21l-31 -28l-33 -32zM435 588q0 33 -21.5 53.5t-55.5 20.5q-32 0 -52.5 -20.5t-20.5 -52.5q0 -22 10 -39q12 -20 54 -70q48 32 67 56q19 22 19 52zM440 176l-142 163q-63 -42 -87 -71q-19 -22 -19 -52
q0 -43 33 -73.5t79 -30.5q34 0 68 18q26 13 68 46z" />
    <glyph glyph-name="quotesingle" unicode="'" horiz-adv-x="264" 
d="M203 750l-22 -309h-98l-22 309h142z" />
    <glyph glyph-name="parenleft" unicode="(" horiz-adv-x="292" 
d="M266 -97l-105 -60l-19 39q-21 43 -36 91q-56 184 -56 402q0 167 38 322q22 92 73 197l105 -59q-43 -99 -62 -185q-30 -134 -30 -279q0 -153 34 -303q18 -78 58 -165z" />
    <glyph glyph-name="parenright" unicode=")" horiz-adv-x="294" 
d="M244 362q0 -163 -36 -313q-24 -99 -75 -206l-106 60q45 107 63 192q28 127 28 272q0 150 -32 295q-18 77 -59 173l106 59q5 -9 11 -22t9 -17q20 -42 36 -94q55 -186 55 -399z" />
    <glyph glyph-name="asterisk" unicode="*" horiz-adv-x="1239" 
d="M975 118l-98 -99l-258 260l-259 -260l-96 97l258 259l-259 259l97 96l259 -258l258 258l96 -96l-256 -257z" />
    <glyph glyph-name="plus" unicode="+" horiz-adv-x="1130" 
d="M945 349q0 -15 -15 -15h-276q-8 0 -10.5 -3t-2.5 -12v-301q0 -18 -15 -18h-117q-14 0 -14 13v306q0 15 -15 15h-280q-15 0 -15 13v124q0 10 2.5 12t12.5 2h278q17 0 17 15v253q0 13 14 13h118q8 0 11 -3t3 -12v-254q0 -12 11 -12h280q13 0 13 -11v-125z" />
    <glyph glyph-name="comma" unicode="," horiz-adv-x="242" 
d="M192 147l-22 -309h-98l-22 309h142z" />
    <glyph glyph-name="hyphen" unicode="-" horiz-adv-x="225" 
d="M225 179h-225v102h225v-102z" />
    <glyph glyph-name="period" unicode="." horiz-adv-x="285" 
d="M231 73q0 -36 -26 -62t-62 -26t-62.5 26t-26.5 61q0 37 26 63t63 26q36 0 62 -25.5t26 -62.5z" />
    <glyph glyph-name="slash" unicode="/" horiz-adv-x="599" 
d="M589 867l-409 -976h-137l408 976h138z" />
    <glyph glyph-name="zero" unicode="0" horiz-adv-x="703" 
d="M642 373q0 -172 -81 -282t-209 -110q-129 0 -210 109.5t-81 284.5q0 173 80.5 283.5t207.5 110.5q131 0 212 -109.5t81 -286.5zM496 375q0 115 -40.5 189.5t-102.5 74.5q-64 0 -104.5 -74t-40.5 -190q0 -117 40 -191t104 -74q63 0 103.5 74.5t40.5 190.5z" />
    <glyph glyph-name="one" unicode="1" horiz-adv-x="376" 
d="M315 0h-146v623h-108v127h254v-750z" />
    <glyph glyph-name="two" unicode="2" horiz-adv-x="667" 
d="M606 0h-545l221 251q103 116 137.5 171.5t34.5 103.5t-33 80.5t-82 32.5q-100 0 -110 -123h-156q9 75 28 114q32 67 93 103t143 36q113 0 188 -68.5t75 -172.5q0 -63 -31.5 -124t-104.5 -138l-130 -139h272v-127z" />
    <glyph glyph-name="three" unicode="3" horiz-adv-x="658" 
d="M597 220q0 -107 -73 -173t-192 -66q-121 0 -198 74q-34 32 -54 76q-14 33 -19 85h146q7 -34 14 -49q14 -26 43.5 -41.5t64.5 -15.5q53 0 87.5 33t34.5 85q0 49 -32.5 83t-78.5 34h-32v105h30q41 0 67 27.5t26 71.5q0 46 -28 74t-73 28q-89 0 -99 -97h-139q13 69 32 102
q30 54 84.5 83.5t124.5 29.5q107 0 172 -57.5t65 -153.5q0 -69 -34 -111q-14 -18 -53 -46q40 -19 62 -40q52 -52 52 -141z" />
    <glyph glyph-name="four" unicode="4" horiz-adv-x="713" 
d="M652 132h-88v-132h-137v132h-366v66l371 565h132v-513h88v-118zM427 250v297l-193 -297h193z" />
    <glyph glyph-name="five" unicode="5" horiz-adv-x="655" 
d="M594 249q0 -119 -82 -193.5t-214 -74.5q-72 0 -130 24q-49 19 -107 74l49 127q51 -56 95 -76q43 -20 88 -20q66 0 110.5 41.5t44.5 102.5q0 63 -49.5 107t-122.5 44q-33 0 -68 -11q-31 -10 -75 -38h-8l89 394h347v-127h-248l-29 -117l14 2q15 2 42 2q109 0 181.5 -74.5
t72.5 -186.5z" />
    <glyph glyph-name="six" unicode="6" horiz-adv-x="691" 
d="M630 241q0 -114 -80 -187t-205 -73t-204.5 72t-79.5 184t95 238l228 305l114 -64l-170 -220q90 -3 137.5 -18t87.5 -54q77 -72 77 -183zM484 237q0 58 -40 99t-97 41q-58 0 -98.5 -41t-40.5 -100t40 -99.5t98 -40.5t98 41t40 100z" />
    <glyph glyph-name="seven" unicode="7" horiz-adv-x="700" 
d="M639 750l-454 -771l-119 70l343 574h-348v127h578z" />
    <glyph glyph-name="eight" unicode="8" horiz-adv-x="643" 
d="M581 208q1 -100 -71 -163.5t-185 -63.5q-115 0 -189.5 64t-74.5 162q0 79 52 133q26 26 83 52q-46 26 -66 49q-43 47 -43 115q0 93 67 153t170 60t169 -60t66 -153q0 -68 -41 -113q-21 -23 -71 -51q56 -25 80 -49q54 -54 54 -135zM426 556q0 44 -30 75t-72 31
q-44 0 -75 -31t-31 -75q0 -43 31 -73.5t74 -30.5t73 30t30 74zM436 215q0 48 -33.5 82t-80.5 34q-48 0 -81 -34t-33 -83t33.5 -83.5t80.5 -34.5t80.5 35t33.5 84z" />
    <glyph glyph-name="nine" unicode="9" horiz-adv-x="691" 
d="M630 513q0 -113 -94 -239l-229 -304l-114 64l171 220q-90 3 -137.5 18t-88.5 54q-77 74 -77 183q0 114 80 187t206 73q124 0 203.5 -72t79.5 -184zM484 514q0 58 -40 98.5t-98 40.5t-98 -40.5t-40 -99.5t39.5 -99.5t96.5 -40.5q59 0 99.5 41t40.5 100z" />
    <glyph glyph-name="colon" unicode=":" horiz-adv-x="356" 
d="M266 416q0 -37 -25.5 -62.5t-62.5 -25.5q-36 0 -62 25.5t-26 61.5q0 37 25.5 63t62.5 26t62.5 -25.5t25.5 -62.5zM266 73q0 -36 -25.5 -62t-62.5 -26q-36 0 -62 26t-26 61q0 37 25.5 63t62.5 26t62.5 -25.5t25.5 -62.5z" />
    <glyph glyph-name="semicolon" unicode=";" horiz-adv-x="357" 
d="M267 414q0 -37 -25.5 -62.5t-62.5 -25.5t-63 26t-26 63q0 36 25.5 61.5t62.5 25.5t63 -25.5t26 -62.5zM250 147l-22 -309h-99l-21 309h142z" />
    <glyph glyph-name="less" unicode="&#x3c;" horiz-adv-x="784" 
d="M604 195l-309 181l309 180v-361zM735 776l-686 -400l686 -400v800z" />
    <glyph glyph-name="equal" unicode="=" horiz-adv-x="1075" 
d="M833 448h-591v151h591v-151zM833 214h-591v149h591v-149z" />
    <glyph glyph-name="greater" unicode="&#x3e;" horiz-adv-x="806" 
d="M202 555l309 -180l-309 -181v361zM71 -25l686 400l-686 400v-800z" />
    <glyph glyph-name="question" unicode="?" horiz-adv-x="538" 
d="M493 554q0 -77 -48.5 -131.5t-137.5 -76.5v-113h-138v215q25 -4 39 -4q62 0 101.5 31.5t39.5 81.5q0 37 -24.5 62t-61.5 25q-34 0 -57 -23.5t-23 -57.5v-13h-145q0 3 -0.5 7.5t-0.5 6.5q0 84 67.5 142.5t162.5 58.5t160.5 -61t65.5 -150zM328 73q0 -37 -25.5 -62.5
t-62.5 -25.5q-36 0 -62 26t-26 61q0 38 26 63.5t63 25.5q36 0 61.5 -25.5t25.5 -62.5z" />
    <glyph glyph-name="at" unicode="@" horiz-adv-x="860" 
d="M819 336q0 -112 -59 -194t-140 -82q-29 0 -52.5 15.5t-34.5 41.5q-55 -59 -128 -59q-80 0 -133 60t-53 151q0 95 58.5 158t146.5 63q38 0 71.5 -13t50.5 -34l5 38h94l-30 -256q-4 -36 -4 -52q0 -29 19 -29q13 0 26 8q35 21 57 71.5t22 108.5q0 115 -81 189t-207 74
q-131 0 -220 -89.5t-89 -220.5q0 -85 39.5 -155.5t109.5 -111.5q70 -40 172 -40q68 0 113.5 11t113.5 45l8 3l11 6l32 -82l-9 -5l-6 -2q-123 -62 -264 -62q-129 0 -223 53q-90 51 -142 142t-52 197q0 167 117 279.5t289 112.5q159 0 265.5 -97.5t106.5 -242.5zM533 293v8
q-4 40 -32.5 65.5t-69.5 25.5q-46 0 -76 -35.5t-30 -91.5q0 -48 24 -79t61 -31q49 0 86 41.5t37 96.5z" />
    <glyph glyph-name="A" unicode="A" horiz-adv-x="766" 
d="M758 0h-157l-64 158h-306l-68 -158h-155l314 746l129 -1zM492 277l-106 269l-109 -269h215z" />
    <glyph glyph-name="B" unicode="B" horiz-adv-x="630" 
d="M585 212q0 -98 -67.5 -155t-185.5 -57h-253v750h185q129 0 184 -45q31 -25 49 -66.5t18 -87.5q0 -63 -28 -106q-16 -22 -53 -44q65 -15 97 -47q54 -54 54 -142zM380 535q0 97 -111 97h-44v-195h42q113 0 113 98zM434 222q0 56 -43 83q-33 21 -111 21h-55v-207h63
q146 0 146 103z" />
    <glyph glyph-name="C" unicode="C" horiz-adv-x="671" 
d="M626 38q0 -6 -2 -10q-8 -14 -60 -29q-51 -16 -126 -16q-164 0 -278.5 113t-114.5 275q0 165 115.5 280.5t281.5 115.5q76 0 157 -34l12 -5q14 -6 14 -19v-133v-12q0 -7 -6 -7q-3 0 -8 5q-62 64 -164 64q-108 0 -181 -72.5t-73 -181.5t74.5 -178t192.5 -69q100 0 152 54
q6 6 8 6q4 0 6 -8v-12v-127z" />
    <glyph glyph-name="D" unicode="D" horiz-adv-x="740" 
d="M695 379q0 -86 -35.5 -162.5t-99.5 -129.5q-103 -87 -268 -87h-213v750h214q176 0 289 -104.5t113 -266.5zM545 375q0 54 -21.5 103.5t-59.5 83.5q-67 61 -200 61h-39v-496h39q134 0 200 60q38 34 59.5 84t21.5 104z" />
    <glyph glyph-name="E" unicode="E" horiz-adv-x="539" 
d="M494 0h-415v750h415v-127h-269v-166h259v-127h-259v-203h269v-127z" />
    <glyph glyph-name="F" unicode="F" horiz-adv-x="514" 
d="M476 623h-251v-166h235v-127h-235v-330h-146v750h397v-127z" />
    <glyph glyph-name="G" unicode="G" horiz-adv-x="848" 
d="M803 378q0 -181 -98.5 -288t-265.5 -107q-172 0 -283 109.5t-111 279.5q0 171 112.5 283t285.5 112q137 0 236 -79q42 -34 85 -98l-128 -69q-29 43 -54 64q-59 47 -141 47q-106 0 -176 -74t-70 -186q0 -111 69.5 -184t175.5 -73q84 0 141 49q23 22 37 49q11 19 19 62
h-176v126h342v-23z" />
    <glyph glyph-name="H" unicode="H" horiz-adv-x="767" 
d="M688 0h-146v334h-317v-334h-146v750h146v-289h317v289h146v-750z" />
    <glyph glyph-name="I" unicode="I" horiz-adv-x="304" 
d="M225 0h-146v750h146v-750z" />
    <glyph glyph-name="J" unicode="J" horiz-adv-x="462" 
d="M383 244q0 -113 -39 -176q-25 -40 -70.5 -63t-98.5 -23q-23 0 -52 6q-67 14 -123 65l89 106q27 -41 72 -41q35 0 53 23q12 13 17 38q6 26 6 88v483h146v-506z" />
    <glyph glyph-name="K" unicode="K" horiz-adv-x="709" 
d="M702 0h-192l-267 337l-18 -18v-319h-146v750h146v-317l276 317h184l-317 -346z" />
    <glyph glyph-name="L" unicode="L" horiz-adv-x="477" 
d="M456 0h-377v750h146v-623h231v-127z" />
    <glyph glyph-name="M" unicode="M" horiz-adv-x="973" 
d="M928 0h-148l-66 462l-207 -472h-40l-199 472l-76 -462h-147l140 764h99l205 -491l213 491h101z" />
    <glyph glyph-name="N" unicode="N" horiz-adv-x="862" 
d="M783 0h-114l-444 507v-507h-146v750h115l443 -505v505h146v-750z" />
    <glyph glyph-name="O" unicode="O" horiz-adv-x="892" 
d="M847 375q0 -165 -116.5 -278.5t-285.5 -113.5q-167 0 -283.5 112t-116.5 272q0 170 115 285t284 115q170 0 286.5 -113t116.5 -279zM696 375q0 108 -73.5 183.5t-177.5 75.5q-102 0 -175.5 -75.5t-73.5 -180.5q0 -109 73 -185.5t177 -76.5t177 76t73 183z" />
    <glyph glyph-name="P" unicode="P" horiz-adv-x="597" 
d="M572 512q0 -103 -61 -167q-61 -67 -191 -67h-95v-278h-146v750h219q74 0 118 -12.5t80 -44.5q76 -68 76 -181zM421 513q0 59 -38 86q-32 24 -107 24h-51v-218h60q136 0 136 108z" />
    <glyph glyph-name="Q" unicode="Q" horiz-adv-x="895" 
d="M850 371q0 -71 -22 -130q-13 -36 -29.5 -63t-53.5 -73l59 -59l-85 -75l-63 69q-50 -31 -92 -42q-51 -15 -112 -15q-174 0 -290.5 112t-116.5 280q0 166 116.5 279t286.5 113t286 -114t116 -282zM699 372q0 110 -73 185t-179 75q-107 0 -179.5 -74t-72.5 -183
q0 -112 71.5 -185t181.5 -73q31 0 58 8q21 7 45 22l-68 67l85 77l73 -74q30 35 43 66q15 39 15 89z" />
    <glyph glyph-name="R" unicode="R" horiz-adv-x="630" 
d="M627 0h-181l-202 302h-19v-302h-146v750h217q127 0 192 -53q34 -28 54 -73.5t20 -95.5q0 -81 -42 -138q-44 -57 -129 -74zM411 519q0 113 -142 113h-44v-227h42q70 0 107 29t37 85z" />
    <glyph glyph-name="S" unicode="S" horiz-adv-x="609" 
d="M564 229q0 -110 -72.5 -178.5t-188.5 -68.5q-159 0 -258 143l95 91q51 -100 157 -100q51 0 83.5 29.5t32.5 75.5q0 32 -16 52q-14 19 -36.5 31t-92.5 38q-86 31 -126 65q-59 50 -59 137q0 94 67 156.5t168 62.5q124 0 219 -83l-76 -100q-54 60 -121 60q-45 0 -75.5 -24.5
t-30.5 -59.5q0 -22 13 -38q22 -27 101 -56q105 -37 150 -75q66 -57 66 -158z" />
    <glyph glyph-name="T" unicode="T" horiz-adv-x="498" 
d="M491 623h-169v-623h-146v623h-168v127h483v-127z" />
    <glyph glyph-name="U" unicode="U" horiz-adv-x="760" 
d="M682 292q0 -129 -55 -201q-39 -50 -105 -79t-142 -29t-142 29t-104 79q-55 72 -55 201v458h146v-429q0 -59 4.5 -84t19.5 -51q19 -32 54 -51t77 -19t77.5 19t54.5 51q15 25 19 50t4 85v429h147v-458z" />
    <glyph glyph-name="V" unicode="V" horiz-adv-x="736" 
d="M729 750l-325 -769h-78l-318 769h159l200 -504l203 504h159z" />
    <glyph glyph-name="W" unicode="W" horiz-adv-x="1110" 
d="M1102 750l-282 -764h-103l-167 490l-174 -490h-103l-265 764h154l168 -510l184 518h80l174 -518l180 510h154z" />
    <glyph glyph-name="X" unicode="X" horiz-adv-x="696" 
d="M696 0h-172l-168 275l-176 -275h-172l265 396l-224 354h176l132 -233l138 233h176l-231 -354z" />
    <glyph glyph-name="Y" unicode="Y" horiz-adv-x="668" 
d="M668 750l-263 -406v-344h-147v344l-258 406h173l162 -260l159 260h174z" />
    <glyph glyph-name="Z" unicode="Z" horiz-adv-x="638" 
d="M623 750l-365 -623h346v-127h-589l367 623h-310v127h551z" />
    <glyph glyph-name="bracketleft" unicode="[" horiz-adv-x="358" 
d="M313 -140h-223v1021h223v-120h-101v-781h101v-120z" />
    <glyph glyph-name="backslash" unicode="\" horiz-adv-x="507" 
d="M480 -109h-138l-408 976h138z" />
    <glyph glyph-name="bracketright" unicode="]" horiz-adv-x="359" 
d="M269 -140h-224v120h102v781h-102v120h224v-1021z" />
    <glyph glyph-name="asciicircum" unicode="^" horiz-adv-x="566" 
d="M559 376h-152l-124 262l-124 -262h-152l180 378h192z" />
    <glyph glyph-name="underscore" unicode="_" horiz-adv-x="385" 
d="M305 344h-225v102h225v-102z" />
    <glyph glyph-name="grave" unicode="`" horiz-adv-x="351" 
d="M341 617l-65 -45l-169 152l100 63z" />
    <glyph glyph-name="a" unicode="a" horiz-adv-x="638" 
d="M577 0h-137v61q-4 -6 -10.5 -13t-8.5 -9q-54 -54 -140 -54q-103 0 -171.5 72t-68.5 180q0 106 68 177.5t169 71.5q46 0 84 -16q40 -17 78 -60v61h137v-471zM455 234q0 56 -39.5 94.5t-97.5 38.5q-56 0 -96 -38.5t-40 -92.5q0 -55 40 -93.5t97 -38.5q56 0 96 38.5t40 91.5
z" />
    <glyph glyph-name="b" unicode="b" horiz-adv-x="639" 
d="M598 237q0 -108 -68.5 -180t-171.5 -72q-43 0 -77 14q-28 10 -44 22.5t-39 39.5v-61h-137v750h137v-340q5 6 22 23q56 53 140 53q101 0 169.5 -71.5t68.5 -177.5zM457 234q0 55 -40 94t-97 39q-56 0 -96 -38.5t-40 -92.5q0 -55 40 -93.5t96 -38.5t96.5 38.5t40.5 91.5z
" />
    <glyph glyph-name="c" unicode="c" horiz-adv-x="474" 
d="M433 14q-62 -29 -126 -29q-113 0 -189.5 71.5t-76.5 177.5q0 107 77 179.5t191 72.5q34 0 59 -5q28 -5 65 -23v-130q-54 39 -111 39q-60 0 -100 -37.5t-40 -94.5t39.5 -94t100.5 -37q28 0 52 7q28 9 59 32v-129z" />
    <glyph glyph-name="d" unicode="d" horiz-adv-x="638" 
d="M577 0h-137v61q-4 -6 -10.5 -13t-8.5 -9q-54 -54 -140 -54q-103 0 -171.5 72t-68.5 180q0 106 68 177.5t169 71.5q46 0 84 -16q40 -17 78 -60v340h137v-750zM455 234q0 56 -39.5 94.5t-97.5 38.5q-56 0 -96 -38.5t-40 -92.5q0 -55 40 -93.5t97 -38.5q56 0 96 38.5
t40 91.5z" />
    <glyph glyph-name="e" unicode="e" horiz-adv-x="587" 
d="M546 214h-365q2 -61 32.5 -93.5t86.5 -32.5q73 0 116 63l126 -20q-62 -146 -239 -146q-119 0 -190.5 68t-71.5 182q0 115 69.5 183t185.5 68q117 0 183.5 -68t66.5 -187v-17zM416 298q-23 94 -116 94q-45 0 -75 -24.5t-39 -69.5h230z" />
    <glyph glyph-name="f" unicode="f" horiz-adv-x="332" 
d="M327 357h-126v-357h-136v357h-53v114h53v74q0 70 22 110q24 43 69.5 69t97.5 26q35 0 73 -16v-120q-39 17 -63 17q-38 0 -53 -33q-10 -23 -10 -72v-55h126v-114z" />
    <glyph glyph-name="g" unicode="g" horiz-adv-x="636" 
d="M575 25q0 -74 -11.5 -113.5t-43.5 -74.5q-74 -83 -206 -83q-147 0 -223 104q-20 27 -27 44.5t-10 48.5h147q23 -85 116 -85q59 0 90 34.5t31 98.5v64q-12 -13 -22 -22q-56 -56 -143 -56q-101 0 -166.5 69t-65.5 176q0 110 68 183t171 73q42 0 75 -13q27 -11 43.5 -23.5
t39.5 -39.5v61h137v-446zM455 234q0 55 -40 94t-97 39q-56 0 -96 -38.5t-40 -92.5q0 -55 40 -93.5t97 -38.5q56 0 96 38.5t40 91.5z" />
    <glyph glyph-name="h" unicode="h" horiz-adv-x="592" 
d="M531 0h-137v258q0 56 -13 78q-21 38 -79 38q-104 0 -104 -133v-241h-137v750h137v-340q17 21 22 25q48 51 131 51q89 0 141 -57q22 -25 30.5 -54t8.5 -79v-296z" />
    <glyph glyph-name="i" unicode="i" horiz-adv-x="264" 
d="M214 677q0 -32 -24 -55.5t-58 -23.5t-58 23.5t-24 55.5q0 33 24 56.5t58 23.5t58 -23.5t24 -56.5zM200 0h-136v471h136v-471z" />
    <glyph glyph-name="j" unicode="j" horiz-adv-x="264" 
d="M214 677q0 -32 -24 -55.5t-58 -23.5t-58 23.5t-24 55.5q0 33 24 56.5t58 23.5t58 -23.5t24 -56.5zM200 -251h-136v722h136v-722z" />
    <glyph glyph-name="k" unicode="k" horiz-adv-x="584" 
d="M582 0h-187l-182 202l-15 -14v-188h-137v750h137v-451l182 172h185l-229 -207z" />
    <glyph glyph-name="l" unicode="l" horiz-adv-x="259" 
d="M198 0h-137v750h137v-750z" />
    <glyph glyph-name="m" unicode="m" horiz-adv-x="881" 
d="M820 0h-137v258q0 51 -11 74q-19 42 -69 42q-54 0 -79 -46q-15 -30 -15 -86v-242h-136v250q0 53 -10 79q-8 19 -29 32t-44 13t-44.5 -12t-32.5 -31q-15 -26 -15 -89v-242h-137v471h137v-54q8 9 19 20q54 49 129 49q98 0 152 -86q58 86 160 86q44 0 80.5 -18t55.5 -49
q26 -42 26 -114v-305z" />
    <glyph glyph-name="n" unicode="n" horiz-adv-x="592" 
d="M531 0h-137v261q0 55 -13 76q-21 37 -79 37q-104 0 -104 -130v-244h-137v471h137v-58q20 23 22 24q47 49 131 49q90 0 141 -57q22 -24 30.5 -52.5t8.5 -77.5v-299z" />
    <glyph glyph-name="o" unicode="o" horiz-adv-x="640" 
d="M599 236q1 -111 -77.5 -181t-201.5 -70q-122 0 -200.5 69t-78.5 177q0 114 77 184.5t202 70.5q124 0 201.5 -69.5t77.5 -180.5zM458 235q1 55 -40 93.5t-98 38.5q-56 0 -97 -38.5t-41 -91.5q0 -56 40 -94.5t98 -38.5q57 0 97 38t41 93z" />
    <glyph glyph-name="p" unicode="p" horiz-adv-x="639" 
d="M598 235q0 -106 -68 -178t-169 -72q-47 0 -84 17q-41 17 -79 59v-305h-137v715h137v-61q14 17 20 23q53 53 140 53q103 0 171.5 -72t68.5 -179zM457 234q0 56 -40 94.5t-97 38.5q-56 0 -96 -38.5t-40 -92.5q0 -55 40 -93.5t96 -38.5t96.5 38.5t40.5 91.5z" />
    <glyph glyph-name="q" unicode="q" horiz-adv-x="638" 
d="M577 -244h-137v305q-18 -20 -21 -23q-56 -53 -141 -53q-101 0 -169 72t-68 178q0 107 68.5 179t171.5 72q41 0 76 -13q28 -11 44.5 -23t38.5 -40v61h137v-715zM455 234q0 56 -39.5 94.5t-97.5 38.5q-56 0 -96 -38.5t-40 -92.5q0 -55 40 -93.5t97 -38.5q56 0 96 38.5
t40 91.5z" />
    <glyph glyph-name="r" unicode="r" horiz-adv-x="418" 
d="M399 475l-19 -124q-30 16 -65 16q-56 0 -87 -34q-30 -33 -30 -107v-226h-137v471h137v-71q23 38 47 56q43 30 95 30q27 0 59 -11z" />
    <glyph glyph-name="s" unicode="s" horiz-adv-x="449" 
d="M419 153q0 -73 -57.5 -120.5t-146.5 -47.5q-112 0 -185 78l71 81q56 -56 115 -56q27 0 44.5 14.5t17.5 37.5q0 20 -14 31t-61 28q-68 24 -93 41q-49 33 -49 98q0 66 48.5 108t125.5 42q50 0 92 -14q34 -11 67 -36l-67 -77q-41 31 -81 31q-22 0 -37 -11.5t-15 -28.5
q0 -14 9 -21q13 -13 68 -32q66 -22 95 -41q53 -38 53 -105z" />
    <glyph glyph-name="t" unicode="t" horiz-adv-x="315" 
d="M310 357h-96v-357h-137v357h-54v114h54v160h137v-160h96v-114z" />
    <glyph glyph-name="u" unicode="u" horiz-adv-x="594" 
d="M532 182q0 -95 -61 -146t-174 -51t-174.5 51t-61.5 146v289h137v-267q0 -107 99 -107t99 107v267h136v-289z" />
    <glyph glyph-name="v" unicode="v" horiz-adv-x="562" 
d="M562 471l-251 -481h-62l-249 481h153l128 -266l128 266h153z" />
    <glyph glyph-name="w" unicode="w" horiz-adv-x="888" 
d="M888 471l-252 -481h-62l-132 287l-130 -287h-63l-249 481h153l128 -272l133 284h58l133 -288l131 276h152z" />
    <glyph glyph-name="x" unicode="x" horiz-adv-x="630" 
d="M630 0h-174l-140 164l-141 -164h-175l232 256l-188 215h172l101 -122l103 122h173l-192 -215z" />
    <glyph glyph-name="y" unicode="y" horiz-adv-x="599" 
d="M599 471l-389 -715h-154l174 315l-230 400h159l146 -268l139 268h155z" />
    <glyph glyph-name="z" unicode="z" horiz-adv-x="562" 
d="M539 472l-276 -358h258v-114h-498l277 359h-234v113h473z" />
    <glyph glyph-name="braceleft" unicode="{" horiz-adv-x="408" 
d="M363 -189q-14 0 -18 -1h-10h-6h-7h-15l-10 -1h-3h-7q-71 0 -102.5 38t-31.5 124v237q0 52 -63 70v111q36 9 49.5 29t13.5 62v215q0 83 31 119t104 36h2h9h11q1 0 5.5 -0.5t8.5 -0.5h11h19l9 -1v-114h-12q-46 0 -58.5 -17t-12.5 -81v-173q0 -45 -9 -70q-7 -20 -19 -33.5
t-39 -30.5q67 -43 67 -105v-209q0 -56 13.5 -73t57.5 -17h12v-114z" />
    <glyph glyph-name="bar" unicode="|" horiz-adv-x="259" 
d="M198 0h-137v750h137v-750z" />
    <glyph glyph-name="braceright" unicode="}" horiz-adv-x="408" 
d="M318 271q-35 -10 -49 -29.5t-14 -61.5v-215q0 -83 -31 -119.5t-103 -36.5h-2h-9l-12 1h-14h-11h-9l-10 1h-9v114h12q46 0 58.5 17.5t12.5 81.5v173q0 49 9 72q7 19 19.5 31.5t39.5 29.5q-68 43 -68 106v209q0 55 -13.5 72t-57.5 17h-12v114q3 1 7 1h6h4h10l15 1h28
q76 0 108 -36.5t32 -124.5v-237q0 -51 63 -70v-111z" />
    <glyph glyph-name="asciitilde" unicode="~" horiz-adv-x="750" 
d="M649 793q-30 -63 -54 -91q-48 -59 -125 -59q-9 0 -25 2q-25 6 -90 29q-46 16 -52 17q-22 8 -39 8q-19 0 -35 -9q-14 -7 -24 -20q-7 -9 -23 -40l-81 53l5 10.5t4 8.5q7 17 14 31q11 26 33 53q43 53 115 53q37 0 116 -29q16 -6 49 -17q25 -9 49 -9q34 0 55 21q9 9 25 36z
" />
    <glyph glyph-name="nbspace" unicode="&#xa0;" horiz-adv-x="281" 
 />
    <glyph glyph-name="exclamdown" unicode="&#xa1;" horiz-adv-x="881" 
d="M831 263h-390l160 -131l-154 -156l-397 406l397 397l154 -157l-160 -133h390v-226z" />
    <glyph glyph-name="cent" unicode="&#xa2;" horiz-adv-x="4137" 
d="M4057 349q0 -15 -15 -15h-276q-8 0 -11 -3t-3 -12v-301q0 -18 -14 -18h-118q-13 0 -13 13v306q0 15 -15 15h-280q-15 0 -15 13v124q0 10 2.5 12t12.5 2h278q16 0 16 15v253q0 13 15 13h118q8 0 11 -3t3 -12v-254q0 -12 11 -12h280q13 0 13 -11v-125zM3294 121l-13 -100
q-2 -14 -4.5 -17.5t-12.5 -3.5h-339q-18 0 -18 15v2l86 715q2 18 20 18h116q14 0 14 -13l-1 -2l-71 -596h209q14 0 14 -15v-3zM2831 10q0 -10 -10 -10h-127q-16 0 -18 13l-22 110h-277l-56 -113q-4 -10 -15 -10h-140q-10 0 -10 7q0 4 2 7l368 727q4 9 14 9h122q12 0 15 -14
l154 -721v-5zM2171 735l-89 -723q0 -4 -4 -8t-9 -4h-127q-10 0 -18 12l-301 491l-61 -492q0 -11 -12 -11h-128q-9 0 -9 12v2l89 723q1 13 14 13h128q10 0 15 -9l301 -499l62 496q2 12 14 12h125q10 0 10 -12v-3zM1336 10q0 -10 -10 -10h-127q-16 0 -18 13l-22 110h-277
l-56 -113q-4 -10 -15 -10h-140q-10 0 -10 7q0 1 2 7l368 727q5 9 14 9h123q11 0 14 -14l154 -721v-5zM693 705l-19 -134q-1 -14 -8 -14q-6 0 -10 4l-21 15q-24 17 -66 28t-82 11q-106 0 -176 -75.5t-70 -188.5q0 -99 56 -157.5t151 -58.5q86 0 165 52q7 4 10 4q6 0 6 -11
l-1 -1v-2l-18 -142q-40 -24 -78 -35q-54 -15 -106 -15q-151 0 -248.5 103t-97.5 262q0 178 113 296t283 118q68 0 119 -16q39 -11 98 -43zM2627 261l-55 280l-133 -280h188zM1132 261l-55 280l-133 -280h188z" />
    <glyph glyph-name="sterling" unicode="&#xa3;" horiz-adv-x="647" 
d="M632 139q-15 -49 -31 -78q-45 -78 -142 -78q-44 0 -131 29q-88 29 -123 29q-55 0 -77 -51l-105 19q20 46 32 67q47 75 131 80q13 34 13 59q0 24 -9 51h-132v102h72q-44 80 -44 152q0 106 79.5 176.5t198.5 70.5q118 0 184 -67.5t68 -192.5l-147 -17q2 19 2 33
q0 50 -33 82.5t-84 32.5q-52 0 -87 -36t-35 -90q0 -47 26 -101l15 -30l6 -13h168v-102h-135q3 -21 3 -43q0 -41 -13 -77l23 -8l54 -18q57 -19 86 -19q48 0 67 60z" />
    <glyph glyph-name="yen" unicode="&#xa5;" horiz-adv-x="663" 
d="M671 718l-18 -149q-67 57 -157 57q-80 0 -147 -45.5t-91 -119.5h382l-15 -127h-379q14 -97 88.5 -152.5t174.5 -55.5q48 0 92 16l-18 -149q-50 -8 -95 -8q-152 0 -263 99t-128 250h-77v127h85q32 136 139 221t247 85q97 0 180 -49z" />
    <glyph glyph-name="brokenbar" unicode="&#xa6;" 
 />
    <glyph glyph-name="section" unicode="&#xa7;" horiz-adv-x="659" 
d="M570 350q0 -128 -132 -193q102 -46 102 -152q0 -84 -61 -140t-152 -56q-98 0 -154.5 55.5t-60.5 157.5h139q1 -45 22.5 -71.5t58.5 -26.5q35 0 58.5 24t23.5 59q0 41 -33 67q-22 16 -88 39q-64 22 -92 37t-51 39q-54 56 -54 143q0 71 34.5 120.5t94.5 64.5
q-100 45 -100 152q0 82 55.5 132t147.5 50q64 0 115.5 -24.5t76.5 -67.5q15 -24 19.5 -45t6.5 -65h-136q-8 91 -79 91q-31 0 -53 -21.5t-22 -52.5t26 -52q21 -18 93 -49q65 -28 93 -44t51 -40q51 -53 51 -131zM426 336q0 40 -27.5 69t-65.5 29q-40 0 -67.5 -28.5
t-27.5 -69.5t27.5 -69.5t66.5 -28.5t66.5 28.5t27.5 69.5z" />
    <glyph glyph-name="dieresis" unicode="&#xa8;" horiz-adv-x="508" 
d="M452 659q0 -34 -24 -57.5t-57 -23.5t-57 24t-24 56q0 34 23.5 58t57.5 24t57.5 -23.5t23.5 -57.5zM218 659q0 -34 -23.5 -57.5t-57.5 -23.5q-33 0 -57 24t-24 56q0 34 23.5 58t57.5 24t57.5 -23.5t23.5 -57.5z" />
    <glyph glyph-name="copyright" unicode="&#xa9;" horiz-adv-x="855" 
d="M817 374q0 -161 -114 -276t-274 -115q-162 0 -276.5 115t-114.5 277q0 161 114 276.5t273 115.5q164 0 278 -114.5t114 -278.5zM739 375q0 132 -90.5 227t-215.5 95q-133 0 -225 -93.5t-92 -228.5q0 -133 91.5 -227.5t220.5 -94.5t220 94.5t91 227.5zM575 168
q-63 -28 -120 -28q-105 0 -177.5 67.5t-72.5 165.5q0 99 73 168t177 69q60 0 116 -28l4 -2v-122l-12 12q-52 48 -108 48q-61 0 -101.5 -41.5t-40.5 -103.5q0 -61 40.5 -101t102.5 -40q61 0 107 46l12 12v-122z" />
    <glyph glyph-name="ordfeminine" unicode="&#xaa;" horiz-adv-x="881" 
d="M831 382l-397 -406l-153 156l159 131h-390v226h390l-159 133l153 157z" />
    <glyph glyph-name="guillemotleft" unicode="&#xab;" horiz-adv-x="552" 
d="M507 63l-80 -57l-175 238l175 241l79 -55l-136 -186zM287 63l-80 -57l-176 238l176 241l78 -55l-136 -186z" />
    <glyph glyph-name="logicalnot" unicode="&#xac;" horiz-adv-x="563" 
d="M525 0h-146v169h-341v131h487v-300z" />
    <glyph glyph-name="registered" unicode="&#xae;" horiz-adv-x="855" 
d="M817 374q0 -161 -114 -276t-274 -115q-162 0 -276.5 115t-114.5 277q0 161 114 276.5t273 115.5q164 0 278 -114.5t114 -278.5zM739 375q0 132 -90.5 227t-215.5 95q-133 0 -225 -93.5t-92 -228.5q0 -133 91.5 -227.5t220.5 -94.5t220 94.5t91 227.5zM628 150h-132
l-125 175l-1 -175h-105v450h142q82 0 127 -35.5t45 -100.5q0 -100 -100 -128zM471 459q0 57 -80 57h-21v-116h19q82 0 82 59z" />
    <glyph glyph-name="macron" unicode="&#xaf;" horiz-adv-x="526" 
d="M468 620h-410v90h410v-90z" />
    <glyph glyph-name="degree" unicode="&#xb0;" horiz-adv-x="675" 
d="M488 615q0 -62 -44 -106t-106 -44t-106 43.5t-44 104.5q0 64 43.5 108t106.5 44q62 0 106 -44t44 -106zM413 615q0 31 -22 53t-53 22t-53 -21.5t-22 -52.5t22 -53t53 -22t53 21.5t22 52.5z" />
    <glyph glyph-name="plusminus" unicode="&#xb1;" 
 />
    <glyph glyph-name="twosuperior" unicode="&#xb2;" 
 />
    <glyph glyph-name="threesuperior" unicode="&#xb3;" 
 />
    <glyph glyph-name="acute" unicode="&#xb4;" horiz-adv-x="438" 
d="M432 724l-168 -152l-66 45l133 170z" />
    <glyph glyph-name="mu" unicode="&#xb5;" horiz-adv-x="903" 
d="M853 384l-157 -153l-133 159v-390h-226v390l-131 -159l-156 153l406 397z" />
    <glyph glyph-name="paragraph" unicode="&#xb6;" horiz-adv-x="644" 
d="M598 623h-83v-726h-123v726h-94v-726h-123v483h-13q-75 0 -121 50t-46 131q0 189 225 189h378v-127z" />
    <glyph glyph-name="periodcentered" unicode="&#xb7;" horiz-adv-x="4963" 
d="M4922 -252h-4881v1227h4881v-1227zM4700 308v204q0 13 -11 13h-251q-10 0 -10 14v231q0 10 -13 10h-204q-10 0 -10 -10v-231q0 -14 -12 -14h-268q-11 0 -11 -11v-205q0 -13 12 -13h266q13 0 13 -15v-269q0 -12 11 -12h205q11 0 11 14v269q0 8 2.5 10.5t10.5 2.5h248
q11 0 11 12zM3903 155v4q0 10 -10 10h-201q-12 0 -12 11v2l75 555v4q0 9 -10 9h-189q-10 0 -13 -16l-104 -721v-5q0 -8 9 -8h420q14 0 15 12zM3356 6q0 7 -1 10l-151 719q-2 10 -5 12.5t-13 2.5h-220q-16 0 -22 -13l-354 -723q-3 -6 -3 -9q0 -5 8 -5h192q15 0 21 11l54 105
q6 11 21 11h231q12 0 15.5 -2.5t5.5 -13.5l19 -97q3 -14 19 -14h171q12 0 12 6zM2600 736v3q0 11 -13 11h-177q-11 0 -14.5 -3t-5.5 -12l-54 -388q-2 -15 -5 -15t-9 11l-224 393q-5 10 -9 12t-15 2h-190q-15 0 -16 -13l-98 -723v-4q0 -7 3 -8.5t14 -1.5h167q15 0 16 14
l60 428q2 13 3 13t8 -10l245 -431q8 -14 24 -14h171q18 0 19 12zM1675 9v4l-149 721q-4 16 -17 16h-231q-16 0 -23 -14l-356 -720q-2 -6 -2 -9q0 -7 8 -7h194q18 0 24 12l50 103q6 12 20 12h244q14 0 16 -13l26 -104q3 -10 14 -10h173q9 0 9 9zM952 693q0 9 -9 15
q-105 68 -254 68q-188 0 -310.5 -118t-122.5 -299q0 -175 112.5 -283.5t294.5 -108.5q101 0 159 35q11 6 14 29l20 138q1 9 1 15q0 9 -3 9t-9 -3q-4 -2 -22 -8q-88 -25 -141 -25q-88 0 -145 59t-57 150q0 98 65 160t169 62q98 0 172 -46q21 -14 27 -14q5 0 6.5 3.5t4.5 18.5
l25 125q3 15 3 18zM3096 302q0 -7 -11 -7h-135q-13 0 -13 6q0 3 2 9l98 221q5 9 6 9q2 0 4 -9l48 -219q0 -2 0.5 -5t0.5 -5zM1414 299q0 -4 -10 -4h-145q-7 0 -7 3l2 6l97 220q3 7 5 7q3 0 5 -10l51 -213q2 -8 2 -9z" />
    <glyph glyph-name="cedilla" unicode="&#xb8;" horiz-adv-x="526" 
d="M407 -100l-130 -140l-68 40l111 149z" />
    <glyph glyph-name="onesuperior" unicode="&#xb9;" 
 />
    <glyph glyph-name="ordmasculine" unicode="&#xba;" horiz-adv-x="907" 
d="M855 397l-406 -397l-397 397l157 154l133 -160v390h226v-390l131 160z" />
    <glyph glyph-name="guillemotright" unicode="&#xbb;" horiz-adv-x="552" 
d="M521 244l-175 -238l-81 57l138 181l-136 186l79 55zM301 244l-176 -238l-80 57l138 181l-136 186l78 55z" />
    <glyph glyph-name="onequarter" unicode="&#xbc;" 
 />
    <glyph glyph-name="onehalf" unicode="&#xbd;" 
 />
    <glyph glyph-name="threequarters" unicode="&#xbe;" 
 />
    <glyph glyph-name="questiondown" unicode="&#xbf;" horiz-adv-x="565" 
d="M395 501q0 -35 -25.5 -61t-61.5 -26q-38 0 -63.5 25t-25.5 62t25.5 63t61.5 26q37 0 63 -26t26 -63zM510 0q0 -74 -70 -131.5t-160 -57.5q-94 0 -159.5 61t-65.5 150q0 95 72 155q37 31 113 53v95h138v-194h-44q-58 0 -97 -31.5t-39 -79.5q0 -37 25 -62.5t60 -25.5
q33 0 57 22.5t24 53.5v3v4v4l-1 4v3h146v-3v-4v-4q0 -2 1 -4v-11z" />
    <glyph glyph-name="Agrave" unicode="&#xc0;" horiz-adv-x="773" 
d="M545 532l220 -534h-159l-64 160h-309l-69 -160h-156l317 753h38l-14 33h136l96 -252h-36zM279 278h217l-107 271z" />
    <glyph glyph-name="Aacute" unicode="&#xc1;" horiz-adv-x="766" 
d="M575 947l-188 -128l-60 55l154 150zM758 0h-157l-64 158h-306l-68 -158h-155l324 766h110zM492 277l-106 269l-109 -269h215z" />
    <glyph glyph-name="Acircumflex" unicode="&#xc2;" horiz-adv-x="744" 
d="M526 527l217 -526h-156l-63 157h-304l-67 -157h-154l222 526h-38l105 249h173l102 -249h-37zM266 276h213l-105 267z" />
    <glyph glyph-name="Atilde" unicode="&#xc3;" horiz-adv-x="766" 
d="M587 975q-13 -67 -47.5 -104.5t-84.5 -37.5q-29 0 -79 21q-55 22 -75 22q-28 0 -45 -41h-77q10 66 42.5 104t78.5 38q32 0 90 -23l42 -16q15 -5 28 -5q17 0 26.5 8.5t22.5 33.5h78zM758 0h-157l-64 158h-306l-68 -158h-155l324 766h110zM492 277l-106 269l-109 -269h215z
" />
    <glyph glyph-name="Adieresis" unicode="&#xc4;" horiz-adv-x="766" 
d="M582 913q0 -34 -23.5 -58t-57.5 -24t-57.5 24t-23.5 58q0 33 23.5 57t56.5 24q34 0 58 -23.5t24 -57.5zM345 913q0 -34 -23.5 -58t-57.5 -24t-57.5 24t-23.5 58q0 33 23.5 57t57.5 24t57.5 -23.5t23.5 -57.5zM758 0h-157l-64 158h-306l-68 -158h-155l324 766h110z
M492 277l-106 269l-109 -269h215z" />
    <glyph glyph-name="Aring" unicode="&#xc5;" horiz-adv-x="766" 
d="M487 892q0 -44 -30.5 -74.5t-73.5 -30.5t-73.5 30.5t-30.5 72.5q0 44 30.5 75t73.5 31t73.5 -30.5t30.5 -73.5zM758 0h-157l-64 158h-306l-68 -158h-155l324 766h110zM426 892q0 17 -12.5 29.5t-30.5 12.5q-17 0 -30 -12.5t-13 -29.5q0 -18 12.5 -30.5t30.5 -12.5
t30.5 12.5t12.5 30.5zM492 277l-106 269l-109 -269h215z" />
    <glyph glyph-name="AE" unicode="&#xc6;" horiz-adv-x="1071" 
d="M1026 0h-428l-64 158h-306l-65 -158h-155l322 750h396l50 -127h-276l68 -168h271l51 -127h-271l82 -201h277zM489 276l-103 255l-110 -255h213z" />
    <glyph glyph-name="Ccedilla" unicode="&#xc7;" horiz-adv-x="695" 
d="M625 576l-1 -12q0 -7 -5 -7q-3 0 -8 5q-70 70 -170 70q-104 0 -174.5 -75t-70.5 -185q0 -109 70.5 -182.5t175.5 -73.5q44 0 91.5 19.5t77.5 49.5q5 6 8 6q5 0 5 -8v-12v-135q0 -14 -32.5 -27.5t-81.5 -19.5l-9 -2v-59h-121v56l-24 6q-143 36 -227 138.5t-84 241.5
q0 166 115.5 280.5t282.5 114.5q77 0 156 -32q18 -7 22 -11t4 -14v-132z" />
    <glyph glyph-name="Egrave" unicode="&#xc8;" horiz-adv-x="538" 
d="M493 0h-414v750h65l-12 31h285l11 -31h65v-127h-268v-167h259v-127h-259v-202h268v-127z" />
    <glyph glyph-name="Eacute" unicode="&#xc9;" horiz-adv-x="539" 
d="M494 0h-415v750h65l11 31h285l-12 -31h66v-127h-269v-166h259v-127h-259v-203h269v-127z" />
    <glyph glyph-name="Ecircumflex" unicode="&#xca;" horiz-adv-x="538" 
d="M493 0h-414v750h65l11 31h262l11 -31h65v-127h-268v-167h259v-127h-259v-202h268v-127z" />
    <glyph glyph-name="Edieresis" unicode="&#xcb;" horiz-adv-x="417" 
d="M58 751h-58v-753h416v127h-270v204h260v128h-260v166h270v128h-55v32h-122v-32h-61v32h-120v-32z" />
    <glyph glyph-name="Igrave" unicode="&#xcc;" horiz-adv-x="309" 
d="M231 874l-61 -55l-187 128l93 77zM225 0h-146v750h146v-750z" />
    <glyph glyph-name="Iacute" unicode="&#xcd;" horiz-adv-x="295" 
d="M220 605h-145v145h145v-145zM220 0h-145v532h145v-532z" />
    <glyph glyph-name="Icircumflex" unicode="&#xce;" horiz-adv-x="304" 
d="M79 -2h146v691h-146v-691zM19 720h270l-21 63h-227z" />
    <glyph glyph-name="Idieresis" unicode="&#xcf;" horiz-adv-x="219" 
d="M38 -3h146v690h-146v-690zM138 719h82v63h-82v-63zM1 719h84v63h-84v-63z" />
    <glyph glyph-name="Eth" unicode="&#xd0;" 
 />
    <glyph glyph-name="Ntilde" unicode="&#xd1;" horiz-adv-x="862" 
d="M558 597l-134 153h134v-153zM783 -15h-101l-457 522v-507h-146v767h101l457 -522v505h146v-765z" />
    <glyph glyph-name="Ograve" unicode="&#xd2;" horiz-adv-x="892" 
d="M525 874l-60 -55l-188 128l93 77zM847 375q0 -165 -116.5 -278.5t-285.5 -113.5q-167 0 -283.5 112t-116.5 272q0 170 115 285t284 115q170 0 286.5 -113t116.5 -279zM696 375q0 108 -73.5 183.5t-177.5 75.5q-102 0 -175.5 -75.5t-73.5 -180.5q0 -109 73 -185.5
t177 -76.5t177 76t73 183z" />
    <glyph glyph-name="Oacute" unicode="&#xd3;" horiz-adv-x="892" 
d="M615 947l-188 -128l-60 55l154 150zM847 375q0 -165 -116.5 -278.5t-285.5 -113.5q-167 0 -283.5 112t-116.5 272q0 170 115 285t284 115q170 0 286.5 -113t116.5 -279zM696 375q0 108 -73.5 183.5t-177.5 75.5q-102 0 -175.5 -75.5t-73.5 -180.5q0 -109 73 -185.5
t177 -76.5t177 76t73 183z" />
    <glyph glyph-name="Ocircumflex" unicode="&#xd4;" horiz-adv-x="886" 
d="M636 715q97 -54 151 -142.5t54 -198.5q0 -167 -116 -278q-115 -111 -283 -111q-121 0 -219 61q-98 62 -146 171q-32 72 -32 149q0 112 53 204q56 97 152 147l12 32q81 36 177 36q104 0 189 -38l12 -32h-4zM443 117q105 0 176 75q72 76 72 182t-72 181q-72 76 -177 76
q-103 0 -175 -76q-72 -75 -72 -178q0 -107 71 -184q70 -76 177 -76z" />
    <glyph glyph-name="Otilde" unicode="&#xd5;" horiz-adv-x="892" 
d="M650 975q-13 -67 -47.5 -104.5t-84.5 -37.5q-29 0 -79 21q-55 22 -75 22q-28 0 -45 -41h-77q10 66 42.5 104t78.5 38q33 0 90 -23l42 -16q15 -5 28 -5q17 0 26.5 8.5t22.5 33.5h78zM847 375q0 -165 -116.5 -278.5t-285.5 -113.5q-167 0 -283.5 112t-116.5 272
q0 170 115 285t284 115q170 0 286.5 -113t116.5 -279zM696 375q0 108 -73.5 183.5t-177.5 75.5q-102 0 -175.5 -75.5t-73.5 -180.5q0 -109 73 -185.5t177 -76.5t177 76t73 183z" />
    <glyph glyph-name="Odieresis" unicode="&#xd6;" horiz-adv-x="892" 
d="M653 913q0 -33 -23.5 -56.5t-57.5 -23.5q-33 0 -57 23.5t-24 55.5q0 34 23.5 58t57.5 24t57.5 -23.5t23.5 -57.5zM401 913q0 -33 -23.5 -56.5t-57.5 -23.5q-33 0 -57 23.5t-24 55.5q0 34 23.5 58t57.5 24t57.5 -23.5t23.5 -57.5zM847 375q0 -165 -116.5 -278.5
t-285.5 -113.5q-167 0 -283.5 112t-116.5 272q0 170 115 285t284 115q170 0 286.5 -113t116.5 -279zM696 375q0 108 -73.5 183.5t-177.5 75.5q-102 0 -175.5 -75.5t-73.5 -180.5q0 -109 73 -185.5t177 -76.5t177 76t73 183z" />
    <glyph glyph-name="multiply" unicode="&#xd7;" 
 />
    <glyph glyph-name="Oslash" unicode="&#xd8;" horiz-adv-x="652" 
d="M469 623h-250v-167h235v-127h-235v-329h-146v750h396v-127zM552 74q0 -37 -26 -63t-62 -26q-37 0 -63 26t-26 63q0 36 26 62t63 26t62.5 -25.5t25.5 -62.5z" />
    <glyph glyph-name="Ugrave" unicode="&#xd9;" horiz-adv-x="795" 
d="M716 782v-250h-38v-236q0 -130 -55 -200q-83 -107 -245 -107q-164 0 -244 107q-55 71 -55 200v454h145v-426q0 -82 12 -109q7 -16 12 -25q39 -69 130 -69t131 69q23 38 23 134v426h38v32h146z" />
    <glyph glyph-name="Uacute" unicode="&#xda;" horiz-adv-x="760" 
d="M549 947l-187 -128l-61 55l155 150zM682 292q0 -129 -55 -201q-39 -50 -105 -79t-142 -29t-142 29t-104 79q-55 72 -55 201v458h146v-429q0 -59 4.5 -84t19.5 -51q19 -32 54 -51t77 -19t77.5 19t54.5 51q15 25 19 50t4 85v429h147v-458z" />
    <glyph glyph-name="Ucircumflex" unicode="&#xdb;" horiz-adv-x="756" 
d="M216 708h312l-20 62h-271zM527 317v360h145v-388q0 -127 -54 -198q-82 -106 -243 -106q-144 0 -220 79.5t-76 224.5v388h143v-360q0 -83 12 -108q7 -16 12 -25q39 -68 129 -68q88 0 130 68q22 37 22 133z" />
    <glyph glyph-name="Udieresis" unicode="&#xdc;" horiz-adv-x="776" 
d="M546 670h151v-372q0 -132 -57 -206q-84 -110 -253 -110q-149 0 -228.5 83t-79.5 233v372h149l1 -342q0 -86 12 -113q2 -5 5 -11t4.5 -9.5t2.5 -5.5q41 -71 134 -71q92 0 136 71q23 41 23 139v342zM229 767v-65h-150v65h150zM697 767v-65h-151v65h151z" />
    <glyph glyph-name="Yacute" unicode="&#xdd;" 
 />
    <glyph glyph-name="Thorn" unicode="&#xde;" 
 />
    <glyph glyph-name="germandbls" unicode="&#xdf;" horiz-adv-x="635" 
d="M594 251q0 -58 -22.5 -111.5t-62.5 -88.5q-74 -67 -211 -67h-13v123q77 2 122.5 43t45.5 109q0 39 -19 72.5t-52 52.5q-36 21 -97 25v117q56 2 86.5 30t30.5 77q0 44 -28.5 72t-73.5 28q-33 0 -57.5 -16t-33.5 -43q-11 -36 -11 -119v-555h-137v613q0 112 55 173
q30 32 79 51t105 19q104 0 169 -60.5t65 -158.5q0 -51 -21.5 -88.5t-70.5 -71.5q57 -25 86 -54q66 -64 66 -172z" />
    <glyph glyph-name="agrave" unicode="&#xe0;" horiz-adv-x="638" 
d="M326 597l-65 -43l-168 146l99 61zM577 0h-137v61q-4 -6 -10.5 -13t-8.5 -9q-54 -54 -140 -54q-103 0 -171.5 72t-68.5 180q0 106 68 177.5t169 71.5q46 0 84 -16q40 -17 78 -60v61h137v-471zM455 234q0 56 -39.5 94.5t-97.5 38.5q-56 0 -96 -38.5t-40 -92.5
q0 -55 40 -93.5t97 -38.5q56 0 96 38.5t40 91.5z" />
    <glyph glyph-name="aacute" unicode="&#xe1;" horiz-adv-x="638" 
d="M499 700l-169 -146l-65 43l134 164zM577 0h-137v61q-4 -6 -10.5 -13t-8.5 -9q-54 -54 -140 -54q-103 0 -171.5 72t-68.5 180q0 106 68 177.5t169 71.5q46 0 84 -16q40 -17 78 -60v61h137v-471zM455 234q0 56 -39.5 94.5t-97.5 38.5q-56 0 -96 -38.5t-40 -92.5
q0 -55 40 -93.5t97 -38.5q56 0 96 38.5t40 91.5z" />
    <glyph glyph-name="acircumflex" unicode="&#xe2;" horiz-adv-x="638" 
d="M514 618l-70 -64l-123 99l-123 -99l-68 64l191 151zM577 0h-137v61q-4 -6 -10.5 -13t-8.5 -9q-54 -54 -140 -54q-103 0 -171.5 72t-68.5 180q0 106 68 177.5t169 71.5q46 0 84 -16q40 -17 78 -60v61h137v-471zM455 234q0 56 -39.5 94.5t-97.5 38.5q-56 0 -96 -38.5
t-40 -92.5q0 -55 40 -93.5t97 -38.5q56 0 96 38.5t40 91.5z" />
    <glyph glyph-name="atilde" unicode="&#xe3;" horiz-adv-x="638" 
d="M526 704q-12 -64 -47 -101t-85 -37q-28 0 -79 20q-56 21 -75 21q-28 0 -45 -39h-77q10 64 42 100.5t79 36.5q33 0 90 -22l17.5 -6.5t15 -6t9.5 -2.5q13 -5 29 -5t25.5 8t23.5 33h77zM577 0h-137v61q-4 -6 -10.5 -13t-8.5 -9q-54 -54 -140 -54q-103 0 -171.5 72t-68.5 180
q0 106 68 177.5t169 71.5q46 0 84 -16q40 -17 78 -60v61h137v-471zM455 234q0 56 -39.5 94.5t-97.5 38.5q-56 0 -96 -38.5t-40 -92.5q0 -55 40 -93.5t97 -38.5q56 0 96 38.5t40 91.5z" />
    <glyph glyph-name="adieresis" unicode="&#xe4;" horiz-adv-x="638" 
d="M520 637q0 -32 -23.5 -55t-57.5 -23q-33 0 -57 23t-24 54q0 33 23.5 56t57.5 23t57.5 -23t23.5 -55zM286 637q0 -32 -23.5 -55t-57.5 -23q-33 0 -56.5 22.5t-23.5 54.5q0 33 23.5 56t57.5 23q33 0 56.5 -23t23.5 -55zM577 0h-137v61q-4 -6 -10.5 -13t-8.5 -9
q-54 -54 -140 -54q-103 0 -171.5 72t-68.5 180q0 106 68 177.5t169 71.5q46 0 84 -16q40 -17 78 -60v61h137v-471zM455 234q0 56 -39.5 94.5t-97.5 38.5q-56 0 -96 -38.5t-40 -92.5q0 -55 40 -93.5t97 -38.5q56 0 96 38.5t40 91.5z" />
    <glyph glyph-name="aring" unicode="&#xe5;" horiz-adv-x="638" 
d="M386 651q0 -40 -29.5 -68.5t-71.5 -28.5q-41 0 -71.5 28.5t-30.5 67.5q0 41 29.5 69.5t72.5 28.5q42 0 71.5 -28.5t29.5 -68.5zM577 0h-137v61q-4 -6 -10.5 -13t-8.5 -9q-54 -54 -140 -54q-103 0 -171.5 72t-68.5 180q0 106 68 177.5t169 71.5q46 0 84 -16q40 -17 78 -60
v61h137v-471zM324 651q0 16 -11.5 27t-27.5 11t-28 -11t-12 -26q0 -16 11.5 -27.5t28.5 -11.5q16 0 27.5 11t11.5 27zM455 234q0 56 -39.5 94.5t-97.5 38.5q-56 0 -96 -38.5t-40 -92.5q0 -55 40 -93.5t97 -38.5q56 0 96 38.5t40 91.5z" />
    <glyph glyph-name="ae" unicode="&#xe6;" horiz-adv-x="912" 
d="M871 214h-367q3 -59 36.5 -93t88.5 -34q77 0 110 65l127 -20q-21 -49 -53 -79q-71 -68 -187 -68q-126 0 -190 89q-70 -89 -195 -89q-89 0 -144.5 42.5t-55.5 111.5q0 70 53.5 113t142.5 43q75 0 135 -33q1 9 1 23q0 47 -32 72.5t-92 25.5q-69 0 -133 -20v106
q76 17 138 17q81 0 132 -30q26 -14 50 -50q65 80 184 80q117 0 184 -68t67 -187v-17zM739 298q-23 94 -115 94q-89 0 -115 -94h230zM372 145q0 25 -29 40.5t-75 15.5q-44 0 -69.5 -15.5t-25.5 -41.5q0 -28 27 -46.5t68 -18.5q44 0 74 19t30 47z" />
    <glyph glyph-name="ccedilla" unicode="&#xe7;" horiz-adv-x="503" 
d="M433 14q-25 -12 -78 -26v-40h-117v42l-11 4l-13 5q-81 32 -127 93.5t-46 140.5q0 107 77 180t191 73q34 0 59 -5q29 -6 65 -23v-130q-54 44 -111 44q-60 0 -100 -39t-40 -98t39.5 -97.5t100.5 -38.5q31 0 52 8q28 10 59 36v-129z" />
    <glyph glyph-name="egrave" unicode="&#xe8;" horiz-adv-x="587" 
d="M350 597l-64 -43l-169 146l99 61zM546 214h-365q2 -61 32.5 -93.5t86.5 -32.5q73 0 116 63l126 -20q-62 -146 -239 -146q-119 0 -190.5 68t-71.5 182q0 115 69.5 183t185.5 68q117 0 183.5 -68t66.5 -187v-17zM416 298q-23 94 -116 94q-45 0 -75 -24.5t-39 -69.5h230z
" />
    <glyph glyph-name="eacute" unicode="&#xe9;" horiz-adv-x="587" 
d="M470 700l-168 -146l-65 43l134 164zM546 214h-365q2 -61 32.5 -93.5t86.5 -32.5q73 0 116 63l126 -20q-62 -146 -239 -146q-119 0 -190.5 68t-71.5 182q0 115 69.5 183t185.5 68q117 0 183.5 -68t66.5 -187v-17zM416 298q-23 94 -116 94q-45 0 -75 -24.5t-39 -69.5h230z
" />
    <glyph glyph-name="ecircumflex" unicode="&#xea;" horiz-adv-x="587" 
d="M486 618l-70 -64l-124 99l-122 -99l-68 64l190 151zM546 214h-365q2 -61 32.5 -93.5t86.5 -32.5q73 0 116 63l126 -20q-62 -146 -239 -146q-119 0 -190.5 68t-71.5 182q0 115 69.5 183t185.5 68q117 0 183.5 -68t66.5 -187v-17zM416 298q-23 94 -116 94q-45 0 -75 -24.5
t-39 -69.5h230z" />
    <glyph glyph-name="edieresis" unicode="&#xeb;" horiz-adv-x="587" 
d="M491 637q0 -32 -23.5 -55t-57.5 -23q-33 0 -57 23t-24 54q0 33 24 56t58 23q33 0 56.5 -23t23.5 -55zM257 637q0 -32 -23.5 -55t-56.5 -23t-57 23t-24 54q0 33 23.5 56t57.5 23q33 0 56.5 -23t23.5 -55zM546 214h-365q2 -61 32.5 -93.5t86.5 -32.5q73 0 116 63l126 -20
q-62 -146 -239 -146q-119 0 -190.5 68t-71.5 182q0 115 69.5 183t185.5 68q117 0 183.5 -68t66.5 -187v-17zM416 298q-23 94 -116 94q-45 0 -75 -24.5t-39 -69.5h230z" />
    <glyph glyph-name="igrave" unicode="&#xec;" horiz-adv-x="285" 
d="M212 597l-65 -43l-169 146l100 61zM223 0h-136v472h136v-472z" />
    <glyph glyph-name="iacute" unicode="&#xed;" horiz-adv-x="285" 
d="M306 700l-168 -146l-65 43l134 164zM198 0h-137v472h137v-472z" />
    <glyph glyph-name="icircumflex" unicode="&#xee;" horiz-adv-x="319" 
d="M351 618l-70 -64l-123 99l-123 -99l-68 64l191 151zM228 0h-137v472h137v-472z" />
    <glyph glyph-name="idieresis" unicode="&#xef;" horiz-adv-x="241" 
d="M304 637q0 -32 -23.5 -55t-57.5 -23q-33 0 -57 23t-24 54q0 33 23.5 56t57.5 23t57.5 -23t23.5 -55zM100 637q0 -32 -23.5 -55t-57.5 -23q-33 0 -57 23t-24 54q0 33 23.5 56t57.5 23t57.5 -23t23.5 -55zM189 0h-137v472h137v-472z" />
    <glyph glyph-name="eth" unicode="&#xf0;" 
 />
    <glyph glyph-name="ntilde" unicode="&#xf1;" horiz-adv-x="592" 
d="M500 704q-13 -65 -47.5 -101.5t-84.5 -36.5q-28 0 -79 20q-56 21 -75 21q-30 0 -45 -39h-77q10 64 42 100.5t79 36.5q33 0 90 -22l17.5 -6.5t15 -6t9.5 -2.5q13 -5 29 -5t25.5 8t23.5 33h77zM531 0h-137v261q0 55 -13 76q-21 37 -79 37q-104 0 -104 -130v-244h-137v471
h137v-58q20 23 22 24q47 49 131 49q90 0 141 -57q22 -24 30.5 -52.5t8.5 -77.5v-299z" />
    <glyph glyph-name="ograve" unicode="&#xf2;" horiz-adv-x="640" 
d="M377 597l-65 -43l-169 146l100 61zM599 236q1 -111 -77.5 -181t-201.5 -70q-122 0 -200.5 69t-78.5 177q0 114 77 184.5t202 70.5q124 0 201.5 -69.5t77.5 -180.5zM458 235q1 55 -40 93.5t-98 38.5q-56 0 -97 -38.5t-41 -91.5q0 -56 40 -94.5t98 -38.5q57 0 97 38t41 93z
" />
    <glyph glyph-name="oacute" unicode="&#xf3;" horiz-adv-x="640" 
d="M497 700l-169 -146l-65 43l134 164zM599 236q1 -111 -77.5 -181t-201.5 -70q-122 0 -200.5 69t-78.5 177q0 114 77 184.5t202 70.5q124 0 201.5 -69.5t77.5 -180.5zM458 235q1 55 -40 93.5t-98 38.5q-56 0 -97 -38.5t-41 -91.5q0 -56 40 -94.5t98 -38.5q57 0 97 38t41 93
z" />
    <glyph glyph-name="ocircumflex" unicode="&#xf4;" horiz-adv-x="640" 
d="M512 618l-70 -64l-123 99l-123 -99l-68 64l191 151zM599 236q1 -111 -77.5 -181t-201.5 -70q-122 0 -200.5 69t-78.5 177q0 114 77 184.5t202 70.5q124 0 201.5 -69.5t77.5 -180.5zM458 235q1 55 -40 93.5t-98 38.5q-56 0 -97 -38.5t-41 -91.5q0 -56 40 -94.5t98 -38.5
q57 0 97 38t41 93z" />
    <glyph glyph-name="otilde" unicode="&#xf5;" horiz-adv-x="640" 
d="M524 704q-13 -65 -47.5 -101.5t-84.5 -36.5q-28 0 -79 20q-56 21 -75 21q-30 0 -45 -39h-77q9 63 41.5 100t79.5 37q31 0 90 -22l17.5 -6.5t15 -6t9.5 -2.5q15 -5 28 -5q17 0 26.5 8t22.5 33h78zM599 236q1 -111 -77.5 -181t-201.5 -70q-122 0 -200.5 69t-78.5 177
q0 114 77 184.5t202 70.5q124 0 201.5 -69.5t77.5 -180.5zM458 235q1 55 -40 93.5t-98 38.5q-56 0 -97 -38.5t-41 -91.5q0 -56 40 -94.5t98 -38.5q57 0 97 38t41 93z" />
    <glyph glyph-name="odieresis" unicode="&#xf6;" horiz-adv-x="640" 
d="M518 637q0 -32 -24 -55t-58 -23q-32 0 -56 23t-24 54q0 33 23.5 56t57.5 23t57.5 -23t23.5 -55zM284 637q0 -32 -23.5 -55t-57.5 -23q-33 0 -57 23t-24 54q0 33 23.5 56t57.5 23t57.5 -23t23.5 -55zM599 236q1 -111 -77.5 -181t-201.5 -70q-122 0 -200.5 69t-78.5 177
q0 114 77 184.5t202 70.5q124 0 201.5 -69.5t77.5 -180.5zM458 235q1 55 -40 93.5t-98 38.5q-56 0 -97 -38.5t-41 -91.5q0 -56 40 -94.5t98 -38.5q57 0 97 38t41 93z" />
    <glyph glyph-name="divide" unicode="&#xf7;" horiz-adv-x="911" 
d="M544 687q0 -37 -26 -62.5t-63 -25.5q-36 0 -62 25.5t-26 61.5q0 37 26 63t63 26q36 0 62 -26t26 -62zM811 334h-711v151h711v-151zM546 138q0 -37 -26 -62.5t-63 -25.5q-36 0 -62 25.5t-26 61.5q0 37 26 63t63 26q36 0 62 -25.5t26 -62.5z" />
    <glyph glyph-name="oslash" unicode="&#xf8;" horiz-adv-x="1649" 
d="M1569 74q0 -37 -25.5 -63t-61.5 -26q-37 0 -63 26t-26 63t26 62.5t62 25.5q37 0 62.5 -25.5t25.5 -62.5zM1389 244q0 -115 -77.5 -187.5t-200.5 -72.5q-122 0 -199.5 72.5t-77.5 186.5t77.5 186.5t198.5 72.5q124 0 201 -71t78 -187zM783 0h-114l-444 507v-507h-146v750
h115l443 -505v505h146v-750zM1249 243q0 56 -40 96.5t-96 40.5q-58 0 -98.5 -40t-40.5 -97q0 -56 40.5 -96.5t97.5 -40.5t97 40t40 97z" />
    <glyph glyph-name="ugrave" unicode="&#xf9;" horiz-adv-x="594" 
d="M354 597l-65 -43l-169 146l100 61zM532 182q0 -95 -61 -146t-174 -51t-174.5 51t-61.5 146v289h137v-267q0 -107 99 -107t99 107v267h136v-289z" />
    <glyph glyph-name="uacute" unicode="&#xfa;" horiz-adv-x="594" 
d="M474 700l-169 -146l-65 43l134 164zM532 182q0 -95 -61 -146t-174 -51t-174.5 51t-61.5 146v289h137v-267q0 -107 99 -107t99 107v267h136v-289z" />
    <glyph glyph-name="ucircumflex" unicode="&#xfb;" horiz-adv-x="594" 
d="M489 618l-70 -64l-123 99l-123 -99l-68 64l191 151zM532 182q0 -95 -61 -146t-174 -51t-174.5 51t-61.5 146v289h137v-267q0 -107 99 -107t99 107v267h136v-289z" />
    <glyph glyph-name="udieresis" unicode="&#xfc;" horiz-adv-x="594" 
d="M495 637q0 -32 -24 -55t-57 -23t-57 23t-24 54q0 33 23.5 56t57.5 23t57.5 -23t23.5 -55zM261 637q0 -32 -23.5 -55t-57.5 -23q-33 0 -57 23t-24 54q0 33 23.5 56t57.5 23t57.5 -23t23.5 -55zM532 182q0 -95 -61 -146t-174 -51t-174.5 51t-61.5 146v289h137v-267
q0 -107 99 -107t99 107v267h136v-289z" />
    <glyph glyph-name="yacute" unicode="&#xfd;" 
 />
    <glyph glyph-name="thorn" unicode="&#xfe;" 
 />
    <glyph glyph-name="ydieresis" unicode="&#xff;" horiz-adv-x="599" 
d="M498 659q0 -34 -24 -57.5t-57 -23.5t-57 24t-24 56q0 34 23.5 58t57.5 24t57.5 -23.5t23.5 -57.5zM264 659q0 -34 -23.5 -57.5t-57.5 -23.5q-33 0 -57 24t-24 56q0 34 23.5 58t57.5 24t57.5 -23.5t23.5 -57.5zM599 488l-393 -749h-154l178 335l-230 414h159l146 -278
l139 278h155z" />
    <glyph glyph-name="dotlessi" unicode="&#x131;" horiz-adv-x="244" 
d="M183 0h-122v434h122v-434z" />
    <glyph glyph-name="Lslash" unicode="&#x141;" horiz-adv-x="429" 
d="M429 0h-336v269l-72 -52v122l72 48v280h130v-204l102 73v-123l-102 -69v-231h206v-113z" />
    <glyph glyph-name="lslash" unicode="&#x142;" horiz-adv-x="279" 
d="M275 453l-74 -52v-401h-122v335l-72 -52v114l72 50v302h122v-235l74 55v-116z" />
    <glyph glyph-name="OE" unicode="&#x152;" horiz-adv-x="1151" 
d="M1106 0h-407v89q-62 -57 -117 -80q-64 -26 -140 -26q-168 0 -282.5 113t-114.5 279q0 163 115.5 277.5t279.5 114.5q70 0 134 -25q34 -13 59 -30t66 -53v91h407v-127h-263v-168h252v-127h-252v-201h263v-127zM685 373q0 107 -73 183t-176 76q-101 0 -171 -75t-70 -184
q0 -107 70 -181.5t171 -74.5q104 0 176.5 74.5t72.5 181.5z" />
    <glyph glyph-name="oe" unicode="&#x153;" horiz-adv-x="999" 
d="M957 214h-370q5 -60 37 -93.5t87 -33.5q75 0 113 65l127 -20q-61 -147 -243 -147q-125 0 -192 91q-31 -33 -54 -50q-62 -41 -152 -41q-117 0 -193 70.5t-76 179.5t77 180t195 71q124 0 203 -86q66 86 190 86q121 0 186 -69t65 -197v-6zM825 298q-23 94 -116 94
q-90 0 -117 -94h233zM447 237q0 55 -38 92.5t-94 37.5t-94.5 -37t-38.5 -92q0 -57 38 -95.5t94 -38.5t94.5 38.5t38.5 94.5z" />
    <glyph glyph-name="Scaron" unicode="&#x160;" horiz-adv-x="663" 
d="M671 718l-18 -149q-67 57 -157 57q-80 0 -147 -45.5t-91 -119.5h382l-15 -127h-379q14 -97 88.5 -152.5t174.5 -55.5q48 0 92 16l-18 -149q-50 -8 -95 -8q-152 0 -263 99t-128 250h-77v127h85q32 136 139 221t247 85q97 0 180 -49z" />
    <glyph glyph-name="scaron" unicode="&#x161;" 
 />
    <glyph glyph-name="Ydieresis" unicode="&#x178;" horiz-adv-x="641" 
d="M528 913q0 -33 -24 -56.5t-58 -23.5q-32 0 -56 23.5t-24 55.5q0 34 23.5 58t57.5 24t57.5 -23.5t23.5 -57.5zM276 913q0 -33 -24 -56.5t-58 -23.5q-32 0 -56 23.5t-24 55.5q0 34 23.5 58t57.5 24t57.5 -23.5t23.5 -57.5zM654 750l-263 -406v-344h-147v344l-258 406h173
l162 -260l159 260h174z" />
    <glyph glyph-name="Zcaron" unicode="&#x17d;" 
 />
    <glyph glyph-name="zcaron" unicode="&#x17e;" 
 />
    <glyph glyph-name="florin" unicode="&#x192;" horiz-adv-x="4963" 
d="M4922 -252h-4881v1227h4881v-1227zM4700 308v204q0 13 -11 13h-251q-10 0 -10 14v231q0 10 -13 10h-204q-10 0 -10 -10v-231q0 -14 -12 -14h-268q-11 0 -11 -11v-205q0 -13 12 -13h266q13 0 13 -15v-269q0 -12 11 -12h205q11 0 11 14v269q0 8 2.5 10.5t10.5 2.5h248
q11 0 11 12zM3903 155v4q0 10 -10 10h-201q-12 0 -12 11v2l75 555v4q0 9 -10 9h-189q-10 0 -13 -16l-104 -721v-5q0 -8 9 -8h420q14 0 15 12zM3356 6q0 7 -1 10l-151 719q-2 10 -5 12.5t-13 2.5h-220q-16 0 -22 -13l-354 -723q-3 -6 -3 -9q0 -5 8 -5h192q15 0 21 11l54 105
q6 11 21 11h231q12 0 15.5 -2.5t5.5 -13.5l19 -97q3 -14 19 -14h171q12 0 12 6zM2600 736v3q0 11 -13 11h-177q-11 0 -14.5 -3t-5.5 -12l-54 -388q-2 -15 -5 -15t-9 11l-224 393q-5 10 -9 12t-15 2h-190q-15 0 -16 -13l-98 -723v-4q0 -7 3 -8.5t14 -1.5h167q15 0 16 14
l60 428q2 13 3 13t8 -10l245 -431q8 -14 24 -14h171q18 0 19 12zM1675 9v4l-149 721q-4 16 -17 16h-231q-16 0 -23 -14l-356 -720q-2 -6 -2 -9q0 -7 8 -7h194q18 0 24 12l50 103q6 12 20 12h244q14 0 16 -13l26 -104q3 -10 14 -10h173q9 0 9 9zM952 693q0 9 -9 15
q-105 68 -254 68q-188 0 -310.5 -118t-122.5 -299q0 -175 112.5 -283.5t294.5 -108.5q101 0 159 35q11 6 14 29l20 138q1 9 1 15q0 9 -3 9t-9 -3q-4 -2 -22 -8q-88 -25 -141 -25q-88 0 -145 59t-57 150q0 98 65 160t169 62q98 0 172 -46q21 -14 27 -14q5 0 6.5 3.5t4.5 18.5
l25 125q3 15 3 18zM3096 302q0 -7 -11 -7h-135q-13 0 -13 6q0 3 2 9l98 221q5 9 6 9q2 0 4 -9l48 -219q0 -2 0.5 -5t0.5 -5zM1414 299q0 -4 -10 -4h-145q-7 0 -7 3l2 6l97 220q3 7 5 7q3 0 5 -10l51 -213q2 -8 2 -9z" />
    <glyph glyph-name="circumflex" unicode="&#x2c6;" horiz-adv-x="503" 
d="M444 640l-70 -67l-124 103l-122 -103l-68 67l190 156z" />
    <glyph glyph-name="caron" unicode="&#x2c7;" horiz-adv-x="461" 
d="M401 648l-172 -139l-169 139l60 59l109 -91l110 91z" />
    <glyph glyph-name="breve" unicode="&#x2d8;" horiz-adv-x="501" 
d="M415 650q-8 -65 -52.5 -103t-112.5 -38t-112 38t-52 103h84q21 -63 80 -63q60 0 81 63h84z" />
    <glyph glyph-name="dotaccent" unicode="&#x2d9;" horiz-adv-x="509" 
d="M330 590q0 -32 -22 -54t-54 -22q-31 0 -53 22t-22 53q0 32 22 54t54 22q31 0 53 -22t22 -53z" />
    <glyph glyph-name="ring" unicode="&#x2da;" horiz-adv-x="433" 
d="M307 599q0 -37 -26.5 -63.5t-63.5 -26.5t-63.5 26.5t-26.5 62.5q0 38 26 64.5t64 26.5q37 0 63.5 -26.5t26.5 -63.5zM252 599q0 15 -10 25t-25 10t-25.5 -10.5t-10.5 -24.5t10.5 -24.5t25.5 -10.5q14 0 24.5 10.5t10.5 24.5z" />
    <glyph glyph-name="ogonek" unicode="&#x2db;" horiz-adv-x="526" 
d="M369 -101l-14 -67q-29 -17 -65 -17q-37 0 -62.5 22.5t-25.5 54.5q0 38 28 71q17 18 45 37h59q-56 -39 -56 -74q0 -17 12 -28t31 -11q23 0 48 12z" />
    <glyph glyph-name="tilde" unicode="&#x2dc;" horiz-adv-x="570" 
d="M489 728q-13 -67 -47.5 -104.5t-84.5 -37.5q-29 0 -79 21q-55 22 -75 22q-28 0 -45 -41h-77q10 66 42.5 104t78.5 38q32 0 90 -23l42 -16q15 -5 28 -5q17 0 26.5 8.5t22.5 33.5h78z" />
    <glyph glyph-name="hungarumlaut" unicode="&#x2dd;" horiz-adv-x="432" 
d="M487 632l-134 -134l-49 40l101 151zM300 632l-134 -134l-49 40l101 151z" />
    <glyph glyph-name="pi" unicode="&#x3c0;" horiz-adv-x="5111" 
d="M602 585l-2 -10q-3 -12 -6 -12t-7 5l-1 1q-3 2 -5 4l-9 7q-54 48 -154 48q-118 0 -190 -82q-69 -80 -69 -183q0 -97 59 -157.5t154 -60.5q68 0 125 30q19 9 46 29q3 3 6 3q6 0 6 -9q0 -3 -1 -4l-1 -5l-16 -140q-1 -15 -42 -32q-67 -29 -143 -29q-154 0 -253 105.5
t-99 268.5q0 181 114.5 300.5t288.5 119.5q84 0 146 -23q68 -24 68 -44v-3zM1020 563l-140 -297h198zM1130 4l-25 126h-285l-62 -126h-162l383 782h143l161 -782h-153zM2027 4h-149l-317 520l-63 -520h-148l93 763h151l314 -525l64 525h148zM2477 559l-111 -273h219zM2696 4
l-65 160h-312l-69 -160h-158l330 779h112l322 -779h-160zM2904 4v763h148v-634h235v-129h-383zM3597 -15q-161 0 -263 146l97 92q52 -101 160 -101q52 0 85 30t33 76q0 33 -16 53q-15 20 -38 32.5t-94 38.5q-84 30 -128 66q-60 51 -60 139q0 97 68 160t171 63q127 0 223 -84
l-77 -102q-55 61 -123 61q-46 0 -77 -25t-31 -60q0 -23 13 -39q21 -28 103 -57q108 -39 152 -77q68 -56 68 -160q0 -112 -73.5 -182t-192.5 -70zM4261 559l-111 -273h219zM4480 4l-66 160h-311l-69 -160h-158l330 779h112l321 -779h-159zM4894 638v-634h-149v634h-171v129
h492v-129h-172z" />
    <glyph glyph-name="endash" unicode="&#x2013;" horiz-adv-x="610" 
d="M539 201h-468v113h468v-113z" />
    <glyph glyph-name="emdash" unicode="&#x2014;" horiz-adv-x="1178" 
d="M944 334h-711v151h711v-151z" />
    <glyph glyph-name="quoteleft" unicode="&#x2018;" horiz-adv-x="247" 
d="M186 750l-13 -303h-86l-26 303h125z" />
    <glyph glyph-name="quoteright" unicode="&#x2019;" horiz-adv-x="248" 
d="M187 750l-12 -303h-87l-27 303h126z" />
    <glyph glyph-name="quotesinglbase" unicode="&#x201a;" horiz-adv-x="335" 
d="M282 140l-158 -297l-86 10l120 302z" />
    <glyph glyph-name="quotedblleft" unicode="&#x201c;" horiz-adv-x="459" 
d="M398 750l-12 -303h-87l-25 303h124zM187 750l-12 -303h-87l-27 303h126z" />
    <glyph glyph-name="quotedblright" unicode="&#x201d;" horiz-adv-x="459" 
d="M398 750l-12 -303h-87l-25 303h124zM187 750l-12 -303h-87l-27 303h126z" />
    <glyph glyph-name="quotedblbase" unicode="&#x201e;" 
 />
    <glyph glyph-name="dagger" unicode="&#x2020;" horiz-adv-x="767" 
d="M688 0h-146v334h-317v-334h-146v750h146v-289h317v289h146v-750z" />
    <glyph glyph-name="daggerdbl" unicode="&#x2021;" horiz-adv-x="903" 
d="M853 384l-157 -153l-133 159v-390h-226v390l-131 -159l-156 153l406 397z" />
    <glyph glyph-name="bullet" unicode="&#x2022;" horiz-adv-x="750" 
d="M530 382q0 -65 -45.5 -111t-109.5 -46t-109.5 46.5t-45.5 111.5q0 64 45.5 110.5t108.5 46.5q65 0 110.5 -46t45.5 -112z" />
    <glyph glyph-name="ellipsis" unicode="&#x2026;" horiz-adv-x="922" 
d="M867 73q0 -37 -25.5 -63t-62.5 -26q-36 0 -62 26t-26 61q0 38 25.5 64t62.5 26t62.5 -26t25.5 -62zM549 73q0 -37 -26 -63t-62 -26t-62.5 26t-26.5 61q0 37 26 63.5t63 26.5q36 0 62 -26t26 -62zM231 73q0 -37 -26 -63t-62 -26t-62.5 26t-26.5 61q0 37 26 63.5t63 26.5
q36 0 62 -26t26 -62z" />
    <glyph glyph-name="perthousand" unicode="&#x2030;" 
 />
    <glyph glyph-name="guilsinglleft" unicode="&#x2039;" horiz-adv-x="332" 
d="M287 63l-80 -57l-176 238l176 241l79 -55l-137 -186z" />
    <glyph glyph-name="guilsinglright" unicode="&#x203a;" horiz-adv-x="332" 
d="M301 244l-176 -238l-80 57l138 181l-136 186l78 55z" />
    <glyph glyph-name="fraction" unicode="&#x2044;" 
 />
    <glyph glyph-name="Euro" unicode="&#x20ac;" horiz-adv-x="663" 
d="M671 718l-18 -149q-67 57 -157 57q-80 0 -147 -45.5t-91 -119.5h382l-15 -127h-379q14 -97 88.5 -152.5t174.5 -55.5q48 0 92 16l-18 -149q-50 -8 -95 -8q-152 0 -263 99t-128 250h-77v127h85q32 136 139 221t247 85q97 0 180 -49z" />
    <glyph glyph-name="trademark" unicode="&#x2122;" horiz-adv-x="818" 
d="M796 323h-96l-33 235l-102 -241h-37l-99 241l-37 -235h-96l77 435h69l106 -260l109 260h71zM281 665h-93v-342h-95v342h-93v85h281v-85z" />
    <glyph glyph-name="partialdiff" unicode="&#x2202;" horiz-adv-x="3915" 
d="M3915 -250h-3815v1227h3815v-1227zM3845 10v175q0 7 -8 7h-205q-5 0 -5 6v556q0 7 -8 7h-208q-6 0 -6 -7v-744q0 -8 6 -8h426q8 0 8 8zM3355 9l-276 736q-3 5 -8 5h-200q-6 0 -9 -5l-282 -736q0 -7 5 -7h193q3 0 8 7l47 117q2 5 8 5h254q7 0 9 -5l45 -117q5 -7 8 -7h194
q3 0 4.5 2.5t-0.5 4.5zM2605 742q0 1 -1 3l-4 1h-195q-3 0 -5 -1l-1 -3l-58 -405q-2 -9 -5 -9q-1 -1 -3 0.5t-3 3.5l-1 2l-232 408q-2 3 -3 3l-5 1h-205q-4 0 -7 -1l-2 -6l-103 -725q0 -5 4 -8l4 -4h186q1 0 5 2l1 6l64 449q0 3 2 3l3 -2l257 -458l2 -1h7h184q5 0 5 1l3 7z
M1712 9l-156 733l-2 3l-7 3h-232h-7l-5 -5l-363 -731q-3 -5 0 -6q1 -4 5 -4h211q3 0 6 4l2 4l51 108q2 7 8 10l8 3h254h3l2 -3l28 -116q0 -6 2 -8l6 -2h180q4 0 4 2zM1009 716l-18 14q-31 21 -70 35q-138 38 -251 22q-74 -10 -143.5 -47.5t-113.5 -95.5q-11 -12 -24 -32
t-31.5 -58t-27.5 -81t-12 -101.5t15 -119.5q27 -110 112.5 -183.5t216.5 -88.5q49 -5 101 2t79 16l28 9q8 3 11 7l8 15l29 165q1 11 -2 13l-18 -5q-3 -2 -6 -2l-40 -16q-41 -14 -81 -17q-102 -5 -166 50q-45 38 -60.5 95t3.5 131q20 75 78 114t128 45q48 3 98 -11.5
t76 -30.5l27 -16q15 -8 18 -8l5 9l28 151zM3047 286q3 -4 -3 -4h-150q-5 0 -4 4l79 225q0 5 3 0zM1462 295h-1h-149q-6 0 -7 1l1 5l102 230l2 2l1 -2l51 -231q2 -4 0 -5z" />
    <glyph glyph-name="Delta" unicode="&#x2206;" horiz-adv-x="3915" 
d="M3915 -250h-3815v1227h3815v-1227zM3845 10v175q0 7 -8 7h-205q-5 0 -5 6v556q0 7 -8 7h-208q-6 0 -6 -7v-744q0 -8 6 -8h426q8 0 8 8zM3355 9l-276 736q-3 5 -8 5h-200q-6 0 -9 -5l-282 -736q0 -7 5 -7h193q3 0 8 7l47 117q2 5 8 5h254q7 0 9 -5l45 -117q5 -7 8 -7h194
q3 0 4.5 2.5t-0.5 4.5zM2605 742q0 1 -1 3l-4 1h-195q-3 0 -5 -1l-1 -3l-58 -405q-2 -9 -5 -9q-1 -1 -3 0.5t-3 3.5l-1 2l-232 408q-2 3 -3 3l-5 1h-205q-4 0 -7 -1l-2 -6l-103 -725q0 -5 4 -8l4 -4h186q1 0 5 2l1 6l64 449q0 3 2 3l3 -2l257 -458l2 -1h7h184q5 0 5 1l3 7z
M1712 9l-156 733l-2 3l-7 3h-232h-7l-5 -5l-363 -731q-3 -5 0 -6q1 -4 5 -4h211q3 0 6 4l2 4l51 108q2 7 8 10l8 3h254h3l2 -3l28 -116q0 -6 2 -8l6 -2h180q4 0 4 2zM1009 716l-18 14q-31 21 -70 35q-138 38 -251 22q-74 -10 -143.5 -47.5t-113.5 -95.5q-11 -12 -24 -32
t-31.5 -58t-27.5 -81t-12 -101.5t15 -119.5q27 -110 112.5 -183.5t216.5 -88.5q49 -5 101 2t79 16l28 9q8 3 11 7l8 15l29 165q1 11 -2 13l-18 -5q-3 -2 -6 -2l-40 -16q-41 -14 -81 -17q-102 -5 -166 50q-45 38 -60.5 95t3.5 131q20 75 78 114t128 45q48 3 98 -11.5
t76 -30.5l27 -16q15 -8 18 -8l5 9l28 151zM3047 286q3 -4 -3 -4h-150q-5 0 -4 4l79 225q0 5 3 0zM1462 295h-1h-149q-6 0 -7 1l1 5l102 230l2 2l1 -2l51 -231q2 -4 0 -5z" />
    <glyph glyph-name="product" unicode="&#x220f;" horiz-adv-x="5111" 
d="M602 585l-2 -10q-3 -12 -6 -12t-7 5l-1 1q-3 2 -5 4l-9 7q-54 48 -154 48q-118 0 -190 -82q-69 -80 -69 -183q0 -97 59 -157.5t154 -60.5q68 0 125 30q19 9 46 29q3 3 6 3q6 0 6 -9q0 -3 -1 -4l-1 -5l-16 -140q-1 -15 -42 -32q-67 -29 -143 -29q-154 0 -253 105.5
t-99 268.5q0 181 114.5 300.5t288.5 119.5q84 0 146 -23q68 -24 68 -44v-3zM1020 563l-140 -297h198zM1130 4l-25 126h-285l-62 -126h-162l383 782h143l161 -782h-153zM2027 4h-149l-317 520l-63 -520h-148l93 763h151l314 -525l64 525h148zM2477 559l-111 -273h219zM2696 4
l-65 160h-312l-69 -160h-158l330 779h112l322 -779h-160zM2904 4v763h148v-634h235v-129h-383zM3597 -15q-161 0 -263 146l97 92q52 -101 160 -101q52 0 85 30t33 76q0 33 -16 53q-15 20 -38 32.5t-94 38.5q-84 30 -128 66q-60 51 -60 139q0 97 68 160t171 63q127 0 223 -84
l-77 -102q-55 61 -123 61q-46 0 -77 -25t-31 -60q0 -23 13 -39q21 -28 103 -57q108 -39 152 -77q68 -56 68 -160q0 -112 -73.5 -182t-192.5 -70zM4261 559l-111 -273h219zM4480 4l-66 160h-311l-69 -160h-158l330 779h112l321 -779h-159zM4894 638v-634h-149v634h-171v129
h492v-129h-172z" />
    <glyph glyph-name="summation" unicode="&#x2211;" 
 />
    <glyph glyph-name="minus" unicode="&#x2212;" horiz-adv-x="567" 
d="M507 293h-447v80h447v-80z" />
    <glyph glyph-name="radical" unicode="&#x221a;" 
 />
    <glyph glyph-name="infinity" unicode="&#x221e;" 
 />
    <glyph glyph-name="integral" unicode="&#x222b;" 
 />
    <glyph glyph-name="approxequal" unicode="&#x2248;" 
 />
    <glyph glyph-name="notequal" unicode="&#x2260;" 
 />
    <glyph glyph-name="lessequal" unicode="&#x2264;" 
 />
    <glyph glyph-name="greaterequal" unicode="&#x2265;" horiz-adv-x="440" 
d="M385 584l-23 71l-131 -48l6 140h-75l5 -140l-131 48l-23 -71l135 -38l-87 -109l61 -44l77 116l78 -116l60 44l-87 109z" />
    <glyph glyph-name="lozenge" unicode="&#x25ca;" horiz-adv-x="685" 
d="M602 334l-259 -360l-260 360l260 359zM540 334l-197 270l-198 -270l198 -271z" />
    <glyph glyph-name="apple" unicode="&#xf8ff;" horiz-adv-x="663" 
d="M671 718l-18 -149q-67 57 -157 57q-80 0 -147 -45.5t-91 -119.5h382l-15 -127h-379q14 -97 88.5 -152.5t174.5 -55.5q48 0 92 16l-18 -149q-50 -8 -95 -8q-152 0 -263 99t-128 250h-77v127h85q32 136 139 221t247 85q97 0 180 -49z" />
    <glyph glyph-name="fi" unicode="&#xfb01;" horiz-adv-x="2529" 
d="M0 -248v1226h2180v-1226h-2180zM988 751q-7 0 -9 -5l-280 -735q-3 -7 3 -7h193q5 0 7 7l47 119q1 3 9 3h256q6 0 7 -3l44 -119q5 -7 10 -7h193q5 0 5 7l-279 735q-2 5 -7 5h-199zM645 256q0 80 -47 133q-23 25 -53 40.5t-83 31.5q-19 7 -41.5 14t-24.5 8q-34 11 -49 26
q-17 15 -17 38q0 27 23 45.5t59 18.5q65 0 126 -52l77 153q-110 59 -235 59q-113 0 -183 -69t-70 -180q0 -122 87 -168q36 -19 115 -41q47 -15 65.5 -23.5t33.5 -23.5q15 -14 15 -39q0 -34 -25 -54t-68 -20q-85 0 -172 78l-81 -156q41 -29 91 -49q83 -38 168 -38
q90 0 160.5 35.5t103.5 95.5q25 57 25 137zM1985 586v163h-511v-163h157v-582h194v582h160zM1161 283q4 0 3 4l-76 224q0 3 -1 4q-2 -1 -2 -4l-78 -224q0 -4 5 -4h149z" />
    <glyph glyph-name="fl" unicode="&#xfb02;" horiz-adv-x="2529" 
d="M0 -248v1226h2180v-1226h-2180zM988 751q-7 0 -9 -5l-280 -735q-3 -7 3 -7h193q5 0 7 7l47 119q1 3 9 3h256q6 0 7 -3l44 -119q5 -7 10 -7h193q5 0 5 7l-279 735q-2 5 -7 5h-199zM645 256q0 80 -47 133q-23 25 -53 40.5t-83 31.5q-19 7 -41.5 14t-24.5 8q-34 11 -49 26
q-17 15 -17 38q0 27 23 45.5t59 18.5q65 0 126 -52l77 153q-110 59 -235 59q-113 0 -183 -69t-70 -180q0 -122 87 -168q36 -19 115 -41q47 -15 65.5 -23.5t33.5 -23.5q15 -14 15 -39q0 -34 -25 -54t-68 -20q-85 0 -172 78l-81 -156q41 -29 91 -49q83 -38 168 -38
q90 0 160.5 35.5t103.5 95.5q25 57 25 137zM1985 586v163h-511v-163h157v-582h194v582h160zM1161 283q4 0 3 4l-76 224q0 3 -1 4q-2 -1 -2 -4l-78 -224q0 -4 5 -4h149z" />
    </font>
</defs>
</svg>
